# xmcd
#
# Track frame offsets:
#	182
#	12077
#	25627
#	42007
#	53697
#	66120
#	79460
#	90132
#	102620
#	113315
#	125445
#	137582
#	149497
#	159632
#	175837
#	186962
#	200075
#	212642
#	226422
#	238657
#	250272
#	260440
#	273512
#	286495
#	297022
#
# Disc length: 4167
#
# Revision: 1
# Processed by: cddbd v1.5.1PL0 Copyright (c) Steve Scherf et al.
# Submitted via: EasyCDDAExtractor 4.6.0.1
# Normalized: r0:DSETVAR1,TDELIM( - )
#
DISCID=63104519
DTITLE=Various Artist - Top Of The Pop [CD2)
DYEAR=1900
DGENRE=blues
TTITLE0=Paul Anka - Put Your Head On My Shoulder
TTITLE1=The Troogs - Love Is All Around
TTITLE2=The Tremeloes - Silence Is Golden
TTITLE3=The Platters - Only You
TTITLE4=The Crew Cuts - Sh Boom
TTITLE5=Ben E. King - Stand By Me
TTITLE6=Ritchie Valens - Donna
TTITLE7=Mary Wells - My Guy
TTITLE8=Phil Phillips - Sea Of Love
TTITLE9=Dave Berry - The Crying Game
TTITLE10=B.J. Thomas - Hooked On A Feeling
TTITLE11=Martha Reeves - Heat Wave
TTITLE12=Leslie Gore - It's My Party
TTITLE13=Gene Pitney - Something's Gotten Hold Of My Heart
TTITLE14=Solomon Burke - If You Need Me
TTITLE15=Percy Sledge - When A Man Loves A Woman
TTITLE16=Dinah Washington - Mad About The Boy
TTITLE17=Johnny Ray - Cry
TTITLE18=Crispian St. Petes - You Were On My Mind
TTITLE19=Bobby Vee - The Night Has A Thousand Eyes
TTITLE20=The Marcels - Blue Moon
TTITLE21=The Turtles - Happy Together
TTITLE22=The Crest - 16 Candies
TTITLE23=Timi Yuro - Hurt
TTITLE24=The Zombies - Time Of The Season
EXTD=
EXTT0=
EXTT1=
EXTT2=
EXTT3=
EXTT4=
EXTT5=
EXTT6=
EXTT7=
EXTT8=
EXTT9=
EXTT10=
EXTT11=
EXTT12=
EXTT13=
EXTT14=
EXTT15=
EXTT16=
EXTT17=
EXTT18=
EXTT19=
EXTT20=
EXTT21=
EXTT22=
EXTT23=
EXTT24=
PLAYORDER=
